<svg xmlns="http://www.w3.org/2000/svg" xmlns:xlink="http://www.w3.org/1999/xlink" viewBox="0 0 430 430" width="430" height="430" style="width: 100%; height: 100%; transform: translate3d(0px, 0px, 0px);" preserveAspectRatio="xMidYMid meet"><defs><clipPath id="__lottie_element_2078"><rect width="430" height="430" x="0" y="0"/></clipPath><clipPath id="__lottie_element_2080"><path d="M0,0 L430,0 L430,430 L0,430z"/></clipPath></defs><g clip-path="url(#__lottie_element_2078)"><g clip-path="url(#__lottie_element_2080)" style="display: block;" transform="matrix(1,0,0,1,0,0)" opacity="1"><g style="display: block;" transform="matrix(3.1634035110473633,0.6085201501846313,-0.6085201501846313,3.1634035110473633,226.4431610107422,218.011474609375)" opacity="1"><g opacity="1" transform="matrix(1,0,0,1,0,0)"><path stroke-linecap="round" stroke-linejoin="round" fill-opacity="0" class="primary" stroke="rgb(18,19,49)" stroke-opacity="1" stroke-width="3.85" d=" M32.343597412109375,-26.46971321105957 C32.343597412109375,-26.46971321105957 47.19282531738281,-26.42679786682129 47.19282531738281,-26.42679786682129 C47.19282531738281,-26.42679786682129 47.19282531738281,39.42720031738281 47.19282531738281,39.42720031738281 C47.19282531738281,39.42720031738281 32.436920166015625,39.42311477661133 32.436920166015625,39.42311477661133"/></g><g opacity="1" transform="matrix(1,0,0,1,0,0)"><path stroke-linecap="round" stroke-linejoin="round" fill-opacity="0" class="secondary" stroke="rgb(8,168,138)" stroke-opacity="1" stroke-width="3.85" d=" M-23.517805099487305,-18.41436195373535 C-23.517805099487305,-18.41436195373535 -8.32752513885498,-18.301040649414062 -8.32752513885498,-18.301040649414062 C5.406474590301514,-18.301040649414062 16.539474487304688,-7.167722702026367 16.539474487304688,6.566277027130127 C16.539474487304688,20.300277709960938 5.406474590301514,31.433958053588867 -8.32752513885498,31.433958053588867 C-8.32752513885498,31.433958053588867 -23.517805099487305,31.320636749267578 -23.517805099487305,31.320636749267578"/></g><g opacity="1" transform="matrix(1,0,0,1,0,0)"><path stroke-linecap="round" stroke-linejoin="round" fill-opacity="0" class="primary" stroke="rgb(18,19,49)" stroke-opacity="1" stroke-width="3.85" d=" M-32.34324645996094,-26.449260711669922 C-32.34324645996094,-26.449260711669922 -29.389650344848633,-26.415218353271484 -29.389650344848633,-26.415218353271484 C-29.389650344848633,-26.415218353271484 -29.389650344848633,-34.6865348815918 -29.389650344848633,-34.6865348815918 C-29.389650344848633,-34.6865348815918 -32.34324645996094,-34.720943450927734 -32.34324645996094,-34.720943450927734"/></g><g opacity="1" transform="matrix(1,0,0,1,0,0)"><path stroke-linecap="round" stroke-linejoin="round" fill-opacity="0" class="primary" stroke="rgb(18,19,49)" stroke-opacity="1" stroke-width="3.85" d=" M6.876272678375244,-26.46971321105957 C6.876272678375244,-26.46971321105957 16.174823760986328,-26.42679786682129 16.174823760986328,-26.42679786682129 C16.174823760986328,-26.42679786682129 11.084823608398438,-39.470115661621094 11.084823608398438,-39.470115661621094 C11.084823608398438,-39.470115661621094 2.948371648788452,-39.50894546508789 2.948371648788452,-39.50894546508789"/></g></g><g style="display: block;" transform="matrix(3.1634035110473633,0.6085201501846313,-0.6085201501846313,3.1634035110473633,226.4431610107422,218.011474609375)" opacity="1"><g opacity="1" transform="matrix(1,0,0,1,0,0)"><path stroke-linecap="round" stroke-linejoin="round" fill-opacity="0" class="primary" stroke="rgb(18,19,49)" stroke-opacity="1" stroke-width="3.85" d=" M-50,2.4000000953674316 C-50,-12.581000328063965 -50,-26.405000686645508 -50,-26.405000686645508 C-50,-26.405000686645508 36.71342468261719,-26.405000686645508 36.71342468261719,-26.405000686645508 C36.71342468261719,-26.405000686645508 36.71342468261719,39.44900131225586 36.71342468261719,39.44900131225586 C36.71342468261719,39.44900131225586 36.71342468261719,39.44900131225586 36.71342468261719,39.44900131225586 C36.71342468261719,39.44900131225586 -50,39.44900131225586 -50,39.44900131225586 C-50,39.44900131225586 -50,20.115999221801758 -50,2.4000000953674316"/></g><g opacity="1" transform="matrix(1,0,0,1,0,0)"><path stroke-linecap="round" stroke-linejoin="round" fill-opacity="0" class="secondary" stroke="rgb(8,168,138)" stroke-opacity="1" stroke-width="3.85" d=" M-3.1393706798553467,6.524724960327148 C-3.1393706798553467,20.258724212646484 -12.793511390686035,31.391725540161133 -24.702608108520508,31.391725540161133 C-36.6117057800293,31.391725540161133 -46.265846252441406,20.258724212646484 -46.265846252441406,6.524724960327148 C-46.265846252441406,-7.209275245666504 -36.6117057800293,-18.34327507019043 -24.702608108520508,-18.34327507019043 C-12.793511390686035,-18.34327507019043 -3.1393706798553467,-7.209275245666504 -3.1393706798553467,6.524724960327148z"/></g><g opacity="1" transform="matrix(1,0,0,1,0,0)"><path stroke-linecap="round" stroke-linejoin="round" fill-opacity="0" class="secondary" stroke="rgb(8,168,138)" stroke-opacity="1" stroke-width="3.85" d=" M-10.035847663879395,6.524724960327148 C-10.035847663879395,15.865724563598633 -16.602733612060547,23.438724517822266 -24.702608108520508,23.438724517822266 C-32.80248260498047,23.438724517822266 -39.36936950683594,15.865724563598633 -39.36936950683594,6.524724960327148 C-39.36936950683594,-2.8162753582000732 -32.80248260498047,-10.389275550842285 -24.702608108520508,-10.389275550842285 C-16.602733612060547,-10.389275550842285 -10.035847663879395,-2.8162753582000732 -10.035847663879395,6.524724960327148z"/></g><g opacity="1" transform="matrix(1,0,0,1,0,0)"><path class="secondary" fill="rgb(8,168,138)" fill-opacity="0" d=" M29.954830169677734,-15.906999588012695 C29.954830169677734,-13.095999717712402 27.9782772064209,-10.817000389099121 25.540569305419922,-10.817000389099121 C23.102859497070312,-10.817000389099121 21.126670837402344,-13.095999717712402 21.126670837402344,-15.906999588012695 C21.126670837402344,-18.718000411987305 23.102859497070312,-20.996999740600586 25.540569305419922,-20.996999740600586 C27.9782772064209,-20.996999740600586 29.954830169677734,-18.718000411987305 29.954830169677734,-15.906999588012695z"/><path stroke-linecap="round" stroke-linejoin="round" fill-opacity="0" class="secondary" stroke="rgb(8,168,138)" stroke-opacity="1" stroke-width="3.85" d=" M29.954830169677734,-15.906999588012695 C29.954830169677734,-13.095999717712402 27.9782772064209,-10.817000389099121 25.540569305419922,-10.817000389099121 C23.102859497070312,-10.817000389099121 21.126670837402344,-13.095999717712402 21.126670837402344,-15.906999588012695 C21.126670837402344,-18.718000411987305 23.102859497070312,-20.996999740600586 25.540569305419922,-20.996999740600586 C27.9782772064209,-20.996999740600586 29.954830169677734,-18.718000411987305 29.954830169677734,-15.906999588012695z"/></g><g opacity="1" transform="matrix(1,0,0,1,0,0)"><path stroke-linecap="round" stroke-linejoin="round" fill-opacity="0" class="primary" stroke="rgb(18,19,49)" stroke-opacity="1" stroke-width="3.85" d=" M-31.884841918945312,-34.676998138427734 C-31.884841918945312,-34.676998138427734 -40.94258117675781,-34.676998138427734 -40.94258117675781,-34.676998138427734 C-40.94258117675781,-34.676998138427734 -40.94258117675781,-26.405000686645508 -40.94258117675781,-26.405000686645508 C-40.94258117675781,-26.405000686645508 -31.884841918945312,-26.405000686645508 -31.884841918945312,-26.405000686645508 C-31.884841918945312,-26.405000686645508 -31.884841918945312,-34.676998138427734 -31.884841918945312,-34.676998138427734z"/></g><g opacity="1" transform="matrix(1,0,0,1,0,0)"><path stroke-linecap="round" stroke-linejoin="round" fill-opacity="0" class="primary" stroke="rgb(18,19,49)" stroke-opacity="1" stroke-width="3.85" d=" M5.4023518562316895,-39.44900131225586 C5.4023518562316895,-39.44900131225586 -18.689607620239258,-39.44900131225586 -18.689607620239258,-39.44900131225586 C-18.689607620239258,-39.44900131225586 -23.103187561035156,-26.405000686645508 -23.103187561035156,-26.405000686645508 C-23.103187561035156,-26.405000686645508 9.81661319732666,-26.405000686645508 9.81661319732666,-26.405000686645508 C9.81661319732666,-26.405000686645508 5.4023518562316895,-39.44900131225586 5.4023518562316895,-39.44900131225586z"/></g></g><g style="display: none;" transform="matrix(12.62060832977295,4.311253070831299,-2.6754255294799805,7.831944465637207,146.72511291503906,309.71209716796875)" opacity="0.4"><g opacity="1" transform="matrix(0.8382400274276733,0,0,0.9670299887657166,1.5,-12.75)"><path class="secondary" fill="rgb(8,168,138)" fill-opacity="1" d=" M0,-22.75 C-8.836999893188477,-22.75 -16,-12.564000129699707 -16,0 C-16,12.564000129699707 -8.836999893188477,22.75 0,22.75 C8.836999893188477,22.75 16,12.564000129699707 16,0 C16,-12.564000129699707 8.836999893188477,-22.75 0,-22.75z"/><path stroke-linecap="round" stroke-linejoin="round" fill-opacity="0" class="secondary" stroke="rgb(8,168,138)" stroke-opacity="1" stroke-width="1" d=" M0,-22.75 C-8.836999893188477,-22.75 -16,-12.564000129699707 -16,0 C-16,12.564000129699707 -8.836999893188477,22.75 0,22.75 C8.836999893188477,22.75 16,12.564000129699707 16,0 C16,-12.564000129699707 8.836999893188477,-22.75 0,-22.75z"/></g></g><g style="display: none;" transform="matrix(3.704281806945801,1.265398383140564,-0.8332139253616333,2.4391205310821533,273.26422119140625,214.60098266601562)" opacity="0.4"><g opacity="1" transform="matrix(0.8382400274276733,0,0,0.9670299887657166,1.5,-12.75)"><path class="secondary" fill="rgb(8,168,138)" fill-opacity="1" d=" M0,-22.75 C-8.836999893188477,-22.75 -16,-12.564000129699707 -16,0 C-16,12.564000129699707 -8.836999893188477,22.75 0,22.75 C8.836999893188477,22.75 16,12.564000129699707 16,0 C16,-12.564000129699707 8.836999893188477,-22.75 0,-22.75z"/><path stroke-linecap="round" stroke-linejoin="round" fill-opacity="0" class="secondary" stroke="rgb(8,168,138)" stroke-opacity="1" stroke-width="3.85" d=" M0,-22.75 C-8.836999893188477,-22.75 -16,-12.564000129699707 -16,0 C-16,12.564000129699707 -8.836999893188477,22.75 0,22.75 C8.836999893188477,22.75 16,12.564000129699707 16,0 C16,-12.564000129699707 8.836999893188477,-22.75 0,-22.75z"/></g></g></g></g></svg>